<svg xmlns="http://www.w3.org/2000/svg" width="84mm" height="84mm" viewBox="0 0 84 84" shape-rendering="crispEdges">
<title>AprilTag tag36h11 ID 4: 64 mm detected square</title>
<rect width="84" height="84" fill="white"/>
<g fill="black"><rect x="10" y="10" width="8" height="8"/>
<rect x="18" y="10" width="8" height="8"/>
<rect x="26" y="10" width="8" height="8"/>
<rect x="34" y="10" width="8" height="8"/>
<rect x="42" y="10" width="8" height="8"/>
<rect x="50" y="10" width="8" height="8"/>
<rect x="58" y="10" width="8" height="8"/>
<rect x="66" y="10" width="8" height="8"/>
<rect x="10" y="18" width="8" height="8"/>
<rect x="18" y="18" width="8" height="8"/>
<rect x="34" y="18" width="8" height="8"/>
<rect x="42" y="18" width="8" height="8"/>
<rect x="50" y="18" width="8" height="8"/>
<rect x="66" y="18" width="8" height="8"/>
<rect x="10" y="26" width="8" height="8"/>
<rect x="18" y="26" width="8" height="8"/>
<rect x="26" y="26" width="8" height="8"/>
<rect x="34" y="26" width="8" height="8"/>
<rect x="42" y="26" width="8" height="8"/>
<rect x="50" y="26" width="8" height="8"/>
<rect x="66" y="26" width="8" height="8"/>
<rect x="10" y="34" width="8" height="8"/>
<rect x="18" y="34" width="8" height="8"/>
<rect x="34" y="34" width="8" height="8"/>
<rect x="50" y="34" width="8" height="8"/>
<rect x="58" y="34" width="8" height="8"/>
<rect x="66" y="34" width="8" height="8"/>
<rect x="10" y="42" width="8" height="8"/>
<rect x="50" y="42" width="8" height="8"/>
<rect x="66" y="42" width="8" height="8"/>
<rect x="10" y="50" width="8" height="8"/>
<rect x="18" y="50" width="8" height="8"/>
<rect x="26" y="50" width="8" height="8"/>
<rect x="66" y="50" width="8" height="8"/>
<rect x="10" y="58" width="8" height="8"/>
<rect x="18" y="58" width="8" height="8"/>
<rect x="34" y="58" width="8" height="8"/>
<rect x="66" y="58" width="8" height="8"/>
<rect x="10" y="66" width="8" height="8"/>
<rect x="18" y="66" width="8" height="8"/>
<rect x="26" y="66" width="8" height="8"/>
<rect x="34" y="66" width="8" height="8"/>
<rect x="42" y="66" width="8" height="8"/>
<rect x="50" y="66" width="8" height="8"/>
<rect x="58" y="66" width="8" height="8"/>
<rect x="66" y="66" width="8" height="8"/></g>
</svg>
